<svg height="384pt" viewBox="0 0 384.02369 384" width="384pt" xmlns="http://www.w3.org/2000/svg"><path d="m242.5 299.597656c-10.925781-3.4375-18.390625-13.53125-18.480469-24.984375v-87.042969c-.027343-11.96875-6.109375-23.109374-16.167969-29.597656-9.265624-6.070312-20.792968-7.59375-31.316406-4.136718l-34.992187 11.382812c-3.285157 1.082031-5.503907 4.144531-5.503907 7.601562 0 3.457032 2.21875 6.519532 5.503907 7.597657 10.929687 3.4375 18.394531 13.535156 18.476562 24.992187v87.042969c.027344 11.96875 6.113281 23.109375 16.167969 29.597656 9.265625 6.082031 20.796875 7.601563 31.320312 4.136719l34.992188-11.414062c3.285156-1.082032 5.503906-4.144532 5.503906-7.601563s-2.21875-6.519531-5.503906-7.601563zm-39.949219 11.414063c-5.917969 1.933593-12.390625 1.074219-17.601562-2.328125-5.53125-3.550782-8.894531-9.660156-8.929688-16.230469v-87.042969c-.003906-11.476562-4.714843-22.449218-13.03125-30.359375l18.503907-6.039062c5.917968-1.941407 12.394531-1.085938 17.601562 2.328125 5.53125 3.550781 8.890625 9.660156 8.925781 16.230468v87.042969c.007813 11.476563 4.71875 22.449219 13.035157 30.359375zm0 0"/><path d="m192.019531 136.011719c22.09375 0 40-17.910157 40-40 0-22.089844-17.90625-40-40-40-22.089843 0-40 17.910156-40 40 .027344 22.082031 17.921875 39.972656 40 40zm0-64c13.257813 0 24 10.746093 24 24 0 13.253906-10.742187 24-24 24-13.253906 0-24-10.746094-24-24 0-13.253907 10.746094-24 24-24zm0 0"/><path d="m192.019531.0117188c-78.085937-.00781255-148.402343 47.2773432-177.847656 119.6015622-29.445313 72.328125-12.152344 155.28125 43.738281 209.816407 55.890625 54.535156 139.242188 69.789062 210.824219 38.582031h107.285156c3.238281 0 6.152344-1.949219 7.390625-4.9375 1.238282-2.988281.554688-6.429688-1.734375-8.71875l-40.949219-40.953125c46.910157-57.421875 56.550782-136.734375 24.765626-203.726563-31.789063-66.992187-99.320313-109.6835935-173.472657-109.6640622zm132.179688 319.4882812 32.511719 32.511719h-89.664063c-1.125.003906-2.238281.238281-3.265625.695312-82.207031 36.785157-178.917969 5.65625-224.238281-72.167969-45.320313-77.824218-24.660157-177.300781 47.898437-230.644531 72.5625-53.34375 173.671875-43.386719 234.433594 23.085938 60.761719 66.476562 61.617188 168.070312 1.984375 235.558593-2.800781 3.167969-2.652344 7.972657.339844 10.960938zm0 0"/></svg>