<svg width="39" height="39" viewBox="0 0 39 39" fill="none" xmlns="http://www.w3.org/2000/svg">
<path d="M12.269 9.74994C12.2678 8.86045 12.4426 7.97951 12.7834 7.1579C13.1242 6.33628 13.6243 5.59025 14.2548 4.9628C14.8853 4.33535 15.6337 3.83889 16.4569 3.50204C17.2802 3.16519 18.1619 2.99461 19.0514 3.00013C22.763 3.02772 25.7317 6.11275 25.7317 9.83468V10.4999C25.7317 13.8577 26.4342 15.8061 27.0529 16.871C27.1196 16.9848 27.1551 17.1142 27.1558 17.246C27.1565 17.3779 27.1224 17.5076 27.0569 17.6221C26.9915 17.7366 26.8971 17.8318 26.7831 17.8982C26.6691 17.9645 26.5397 17.9996 26.4078 17.9999H11.5922C11.4603 17.9996 11.3309 17.9645 11.2169 17.8981C11.1029 17.8318 11.0084 17.7366 10.943 17.622C10.8776 17.5075 10.8435 17.3778 10.8442 17.2459C10.845 17.114 10.8805 16.9846 10.9472 16.8709C11.5662 15.8059 12.269 13.8575 12.269 10.4999L12.269 9.74994Z" stroke="#ABABAB" stroke-width="1.5" stroke-linecap="round" stroke-linejoin="round"/>
<path d="M16 18V18.75C16 19.5456 16.3161 20.3087 16.8787 20.8713C17.4413 21.4339 18.2044 21.75 19 21.75C19.7956 21.75 20.5587 21.4339 21.1213 20.8713C21.6839 20.3087 22 19.5456 22 18.75V18" stroke="#ABABAB" stroke-width="1.5" stroke-linecap="round" stroke-linejoin="round"/>
<path d="M0.210938 36H1.58789L2.35547 33.7148H5.58398L6.35156 36H7.73438L4.68164 27.5449H3.26367L0.210938 36ZM3.95508 28.9453H3.98438L5.23242 32.6602H2.70703L3.95508 28.9453ZM10.998 36.123C12.4805 36.123 13.5117 35.1738 13.6465 33.9375L13.6523 33.8965H12.4336L12.4277 33.9434C12.2754 34.6113 11.7773 35.0625 10.998 35.0625C10.0195 35.0625 9.36914 34.2715 9.36914 32.9238V32.918C9.36914 31.5996 10.0078 30.7793 10.9922 30.7793C11.8184 30.7793 12.2871 31.2891 12.4219 31.8926L12.4336 31.9395H13.6406L13.6348 31.8984C13.5293 30.7383 12.5684 29.7188 10.9805 29.7188C9.22266 29.7188 8.07422 30.9551 8.07422 32.9062V32.9121C8.07422 34.8867 9.19922 36.123 10.998 36.123ZM16.7109 36.123C16.9688 36.123 17.209 36.0938 17.3555 36.0703V35.0918C17.2617 35.1035 17.1504 35.1152 17.0156 35.1152C16.4824 35.1152 16.2012 34.9277 16.2012 34.3008V30.8438H17.3555V29.8359H16.2012V28.2305H14.9062V29.8359H14.0215V30.8438H14.9062V34.377C14.9062 35.6074 15.4922 36.123 16.7109 36.123ZM19.0898 28.8867C19.5059 28.8867 19.8281 28.5586 19.8281 28.1602C19.8281 27.7559 19.5059 27.4277 19.0898 27.4277C18.6797 27.4277 18.3516 27.7559 18.3516 28.1602C18.3516 28.5586 18.6797 28.8867 19.0898 28.8867ZM18.457 36H19.7227V29.8359H18.457V36ZM22.7227 36H24.082L26.291 29.8359H24.9727L23.4258 34.7637H23.3965L21.8496 29.8359H20.502L22.7227 36ZM27.7031 28.8867C28.1191 28.8867 28.4414 28.5586 28.4414 28.1602C28.4414 27.7559 28.1191 27.4277 27.7031 27.4277C27.293 27.4277 26.9648 27.7559 26.9648 28.1602C26.9648 28.5586 27.293 28.8867 27.7031 28.8867ZM27.0703 36H28.3359V29.8359H27.0703V36ZM31.8047 36.123C32.0625 36.123 32.3027 36.0938 32.4492 36.0703V35.0918C32.3555 35.1035 32.2441 35.1152 32.1094 35.1152C31.5762 35.1152 31.2949 34.9277 31.2949 34.3008V30.8438H32.4492V29.8359H31.2949V28.2305H30V29.8359H29.1152V30.8438H30V34.377C30 35.6074 30.5859 36.123 31.8047 36.123ZM34.2246 38.0566C35.4316 38.0566 36.0762 37.5645 36.5332 36.2871L38.8301 29.8359H37.4941L35.9414 34.8516H35.9004L34.3477 29.8359H32.9766L35.2207 36.0059L35.1152 36.2988C34.9043 36.8965 34.5762 37.0547 33.9785 37.0547C33.8086 37.0547 33.6621 37.0312 33.5625 37.0078V37.998C33.7148 38.0273 33.9785 38.0566 34.2246 38.0566Z" fill="#ABABAB"/>
</svg>
