<svg height="512" viewBox="0 0 60 60" width="512" xmlns="http://www.w3.org/2000/svg"><g id="Page-1" fill="none" fill-rule="evenodd"><g id="027---Group-Chat" fill="rgb(0,0,0)" fill-rule="nonzero"><path id="Shape" d="m53.181 39.94c1.8123518-1.8548341 2.8245539-4.3467399 2.819-6.94-.0140984-4.0150685-2.4186997-7.6357358-6.114-9.206 1.0807319-2.5558589 1.3766169-5.3754687.85-8.1 2.793-1.621 4.264-3.58 4.264-5.694 0-5.607-10.981-10-25-10s-25 4.393-25 10c0 2.114 1.471 4.073 4.264 5.7-.52722751 2.7245049-.23132375 5.5442937.85 8.1-3.69330307 1.5694047-6.09750746 5.1871149-6.114 9.2-.00555388 2.5932601 1.0066482 5.0851659 2.819 6.94-4.21810596 2.5245446-6.80557652 7.0741519-6.819 11.99v2.34c.00220296 1.5068239 1.22317607 2.727797 2.73 2.73h11.27c0 1.6568542 1.3431458 3 3 3h26c1.6568542 0 3-1.3431458 3-3h11.27c1.5068239-.002203 2.727797-1.2231761 2.73-2.73v-2.34c-.0132254-4.9159008-2.6007475-9.4655987-6.819-11.99zm.819-6.94c.0036611 3.1977522-1.8991553 6.0898576-4.8372284 7.3521409-2.938073 1.2622832-6.3457402.6517189-8.6627716-1.5521409 1.9947266-3.609408 1.9947266-7.990592 0-11.6 1.4671602-1.4133761 3.4268078-2.2002478 5.464-2.194.277.745.414 1.246.416 1.252.0968963.3584098.3843869.6336333.7466788.7148186.3622918.0811852.7397408-.0450333.9803212-.3278186.2868582-.341115.5539615-.6983656.8-1.07 3.0591529 1.1970515 5.0778088 4.1400163 5.093 7.425zm-24 10c-4.9773632.0075074-9.2011141-3.6497848-9.9055134-8.5770581-.7043994-4.9272733 2.3254202-9.6215306 7.1055134-11.0089419l1.949 3.117c.1823393.2942169.5038624.4732173.85.4732173s.6676607-.1790004.85-.4732173l1.951-3.117c4.7770184 1.3901759 7.8035421 6.082961 7.0994514 11.0080753-.7040907 4.9251142-4.9242652 8.5819168-9.8994514 8.5779247zm-9.378-17.486c-1.5970268-1.4182774-3.609015-2.2834639-5.737-2.467.75903-1.6524883 1.915445-3.0913076 3.366-4.188 2.2087764.4531891 4.4438467.767141 6.692.94l1.164 1.861c-2.1582399.7357301-4.0612869 2.0728938-5.485 3.854zm18.756 0c-1.4239629-1.7810657-3.3268932-3.1184944-5.485-3.855l1.164-1.859c2.251133-.1681737 4.4890981-.4811548 6.7-.937 1.4482232 1.0965764 2.6028226 2.5342434 3.361 4.185-2.1289129.1833968-4.1418977 1.0485595-5.74 2.467zm-32.378-15.514c0-3.784 9.445-8 23-8s23 4.216 23 8c0 1.465-1.372 2.99-3.864 4.294-.4109737.2151207-.620056.6846244-.505 1.134.7215061 2.8223534.37351 5.8118428-.977 8.393l-.068-.168c-.876-2.151-2.43-5.009-4.894-6.566-.2425123-.2433419-.5923502-.3462575-.928-.273-2.4261015.5229826-4.8874252.8665786-7.364 1.028-.3381117.0273626-.6392988.2242637-.8.523l-3.6 5.752-3.57-5.717c-.1563913-.3214101-.4724428-.5349069-.829-.56-2.4741525-.1662683-4.9331547-.5101544-7.358-1.029-.3146551-.0649864-.6414497.023768-.88.239-2.5 1.549-4.067 4.434-4.949 6.6l-.068.169c-1.3515231-2.5808448-1.6995638-5.5707179-.977-8.393.1158902-.4481648-.0909544-.9172883-.5-1.134-2.497-1.302-3.869-2.827-3.869-4.292zm4.088 15.577c.2461204.3715768.5132202.7288228.8 1.07.2405804.2827853.6180294.4090038.9803212.3278186.3622919-.0811853.6497825-.3564088.7466788-.7148186 0-.006.139-.507.416-1.252 2.0387207-.0085077 4.0005121.7777872 5.469 2.192-1.9947266 3.609408-1.9947266 7.990592 0 11.6-1.4842916 1.4100779-3.4527007 2.1974415-5.5 2.2-4.41645009-.0044098-7.99559016-3.5835499-8-8 .01519916-3.2830095 2.0314879-6.2246194 5.088-7.423zm-2.088 29.423v-3c0-.5522847-.44771525-1-1-1s-1 .4477153-1 1v3h-4.27c-.40091734-.0053822-.72461784-.3290827-.73-.73v-2.34c.01176167-4.4637632 2.49819849-8.5527501 6.456-10.617 3.7742112 2.5303684 8.7825953 2.1852037 12.174-.839.4594247.5770383.9712747 1.110313 1.529 1.593-4.7241104 2.6560186-7.7813291 7.5241556-8.122 12.933zm35 2c0 .5522847-.4477153 1-1 1h-5v-4c0-.5522847-.4477153-1-1-1s-1 .4477153-1 1v4h-12v-4c0-.5522847-.4477153-1-1-1s-1 .4477153-1 1v4h-5c-.5522847 0-1-.4477153-1-1v-1c.004473-5.3953519 3.1089179-10.3079998 7.98-12.628 3.7192747 2.1687313 8.3177253 2.1687313 12.037 0 1.4413312.6787825 2.7533027 1.603626 3.877 2.733 2.6388327 2.6151882 4.1180051 6.179828 4.106 9.895zm14-2.73c-.0053822.4009173-.3290827.7246178-.73.73h-4.27v-3c0-.5522847-.4477153-1-1-1s-1 .4477153-1 1v3h-5.049c-.3352472-5.4056849-3.3836046-10.2744009-8.1-12.937.5557642-.4813755 1.0656203-1.0133265 1.523-1.589 3.3914047 3.0242037 8.3997888 3.3693684 12.174.839 3.9562516 2.0653349 6.4410173 6.154107 6.452 10.617z"/><path id="Shape" d="m30 13c1.6568542 0 3-1.3431458 3-3 0-1.65685425-1.3431458-3-3-3s-3 1.34314575-3 3c0 1.6568542 1.3431458 3 3 3zm0-4c.5522847 0 1 .44771525 1 1 0 .5522847-.4477153 1-1 1s-1-.4477153-1-1c0-.55228475.4477153-1 1-1z"/><path id="Shape" d="m21 13c1.6568542 0 3-1.3431458 3-3 0-1.65685425-1.3431458-3-3-3s-3 1.34314575-3 3c0 1.6568542 1.3431458 3 3 3zm0-4c.5522847 0 1 .44771525 1 1 0 .5522847-.4477153 1-1 1s-1-.4477153-1-1c0-.55228475.4477153-1 1-1z"/><path id="Shape" d="m39 13c1.6568542 0 3-1.3431458 3-3 0-1.65685425-1.3431458-3-3-3s-3 1.34314575-3 3c0 1.6568542 1.3431458 3 3 3zm0-4c.5522847 0 1 .44771525 1 1 0 .5522847-.4477153 1-1 1s-1-.4477153-1-1c0-.55228475.4477153-1 1-1z"/></g></g></svg>