<svg width="34" height="38" viewBox="0 0 34 38" fill="none" xmlns="http://www.w3.org/2000/svg">
<path d="M8.19421 13.1951C7.35557 11.7814 7.06187 10.1101 7.36826 8.49515C7.67466 6.88018 8.56007 5.4326 9.85823 4.42425C11.1564 3.4159 12.778 2.91613 14.4186 3.0188C16.0591 3.12146 17.6058 3.81949 18.7681 4.98181C19.9305 6.14414 20.6285 7.6908 20.7312 9.33136C20.8338 10.9719 20.3341 12.5936 19.3257 13.8917C18.3174 15.1899 16.8698 16.0753 15.2549 16.3817C13.6399 16.6881 11.9686 16.3944 10.5549 15.5558L10.5549 15.5557L8.22356 16.2218C8.1271 16.2494 8.02504 16.2506 7.92793 16.2255C7.83082 16.2003 7.74221 16.1496 7.67128 16.0787C7.60035 16.0078 7.54967 15.9192 7.52451 15.822C7.49935 15.7249 7.50061 15.6229 7.52817 15.5264L8.19426 13.1951L8.19421 13.1951Z" stroke="#ABABAB" stroke-width="1.5" stroke-linecap="round" stroke-linejoin="round"/>
<path d="M13.6304 16.49C13.9622 17.432 14.4988 18.2887 15.2015 18.9984C15.9043 19.708 16.7557 20.253 17.6944 20.5941C18.6331 20.9351 19.6357 21.0638 20.6301 20.9707C21.6245 20.8776 22.5859 20.5652 23.445 20.0559L23.445 20.0558L25.7763 20.7219C25.8727 20.7495 25.9748 20.7508 26.0719 20.7256C26.169 20.7004 26.2576 20.6498 26.3286 20.5788C26.3995 20.5079 26.4502 20.4193 26.4753 20.3222C26.5005 20.2251 26.4992 20.123 26.4717 20.0265L25.8056 17.6952L25.8056 17.6953C26.3975 16.6972 26.7221 15.5634 26.7481 14.4033C26.7742 13.2432 26.5008 12.0959 25.9544 11.0723C25.408 10.0486 24.607 9.183 23.6286 8.55903C22.6503 7.93506 21.5276 7.57377 20.369 7.51001" stroke="#ABABAB" stroke-width="1.5" stroke-linecap="round" stroke-linejoin="round"/>
<path d="M1.20898 36H2.52148V32.4609H6.1543V31.3535H2.52148V28.6758H6.48828V27.5449H1.20898V36ZM9.91602 36.123C11.6797 36.123 12.8398 34.9043 12.8398 32.918V32.9062C12.8398 30.9316 11.668 29.7188 9.91016 29.7188C8.1582 29.7188 6.99219 30.9375 6.99219 32.9062V32.918C6.99219 34.8984 8.14648 36.123 9.91602 36.123ZM9.92188 35.0625C8.93164 35.0625 8.28711 34.2832 8.28711 32.918V32.9062C8.28711 31.5586 8.9375 30.7793 9.91016 30.7793C10.9004 30.7793 11.5449 31.5586 11.5449 32.9062V32.918C11.5449 34.2773 10.9121 35.0625 9.92188 35.0625ZM13.8184 36H15.084V32.291C15.084 31.418 15.5879 30.873 16.4023 30.873C16.6484 30.873 16.8711 30.9023 16.9707 30.9434V29.7656C16.8711 29.748 16.7129 29.7188 16.5312 29.7188C15.8047 29.7188 15.2539 30.1523 15.0664 30.8555H15.0371V29.8359H13.8184V36ZM19.8535 36.123C20.791 36.123 21.418 35.6953 21.7402 35.0742H21.7695V36H23.041V29.8359H21.7695V33.4336C21.7695 34.3945 21.1953 35.0332 20.3047 35.0332C19.4258 35.0332 18.9922 34.5176 18.9922 33.5859V29.8359H17.7266V33.832C17.7266 35.25 18.5 36.123 19.8535 36.123ZM24.2949 36H25.5605V32.1914C25.5605 31.3945 26.0938 30.8027 26.8438 30.8027C27.5586 30.8027 28.0098 31.2598 28.0098 31.9746V36H29.252V32.1445C29.252 31.3652 29.7734 30.8027 30.5234 30.8027C31.2734 30.8027 31.7012 31.2656 31.7012 32.0684V36H32.9727V31.7637C32.9727 30.5273 32.1758 29.7188 30.957 29.7188C30.0781 29.7188 29.3516 30.1816 29.0352 30.9316H29.0059C28.7598 30.1582 28.1387 29.7188 27.2891 29.7188C26.4805 29.7188 25.8535 30.1465 25.5898 30.791H25.5605V29.8359H24.2949V36Z" fill="#ABABAB"/>
</svg>
