<svg width="32" height="38" viewBox="0 0 32 38" fill="none" xmlns="http://www.w3.org/2000/svg">
<path d="M18.2495 19.4994V14.9993C18.2495 14.8004 18.1704 14.6096 18.0298 14.469C17.8891 14.3283 17.6984 14.2493 17.4995 14.2493H14.4995C14.3005 14.2493 14.1098 14.3283 13.9691 14.469C13.8285 14.6096 13.7495 14.8004 13.7495 14.9993V19.4994C13.7495 19.6983 13.6704 19.889 13.5298 20.0297C13.3892 20.1703 13.1984 20.2494 12.9995 20.2494L8.50009 20.25C8.40159 20.25 8.30406 20.2306 8.21305 20.1929C8.12205 20.1552 8.03936 20.1 7.9697 20.0304C7.90005 19.9607 7.8448 19.878 7.8071 19.787C7.7694 19.696 7.75 19.5985 7.75 19.5V10.8318C7.75 10.7273 7.77183 10.624 7.8141 10.5284C7.85637 10.4329 7.91814 10.3472 7.99545 10.2769L15.4949 3.45803C15.633 3.3325 15.8129 3.26295 15.9995 3.26294C16.186 3.26293 16.3659 3.33248 16.504 3.45799L24.0045 10.2769C24.0818 10.3472 24.1436 10.4329 24.1859 10.5284C24.2282 10.624 24.25 10.7274 24.25 10.8319V19.5C24.25 19.5985 24.2306 19.696 24.1929 19.787C24.1552 19.878 24.1 19.9607 24.0303 20.0304C23.9606 20.1 23.878 20.1552 23.7869 20.1929C23.6959 20.2306 23.5984 20.25 23.4999 20.25L18.9994 20.2494C18.8005 20.2494 18.6097 20.1703 18.4691 20.0297C18.3285 19.889 18.2494 19.6983 18.2495 19.4994V19.4994Z" stroke="#ABABAB" stroke-width="1.5" stroke-linecap="round" stroke-linejoin="round"/>
<path d="M1.12305 36H2.43555V32.2559H6.77734V36H8.08984V27.5449H6.77734V31.1191H2.43555V27.5449H1.12305V36ZM12.1387 36.123C13.9023 36.123 15.0625 34.9043 15.0625 32.918V32.9062C15.0625 30.9316 13.8906 29.7188 12.1328 29.7188C10.3809 29.7188 9.21484 30.9375 9.21484 32.9062V32.918C9.21484 34.8984 10.3691 36.123 12.1387 36.123ZM12.1445 35.0625C11.1543 35.0625 10.5098 34.2832 10.5098 32.918V32.9062C10.5098 31.5586 11.1602 30.7793 12.1328 30.7793C13.123 30.7793 13.7676 31.5586 13.7676 32.9062V32.918C13.7676 34.2773 13.1348 35.0625 12.1445 35.0625ZM16.041 36H17.3066V32.1914C17.3066 31.3945 17.8398 30.8027 18.5898 30.8027C19.3047 30.8027 19.7559 31.2598 19.7559 31.9746V36H20.998V32.1445C20.998 31.3652 21.5195 30.8027 22.2695 30.8027C23.0195 30.8027 23.4473 31.2656 23.4473 32.0684V36H24.7188V31.7637C24.7188 30.5273 23.9219 29.7188 22.7031 29.7188C21.8242 29.7188 21.0977 30.1816 20.7812 30.9316H20.752C20.5059 30.1582 19.8848 29.7188 19.0352 29.7188C18.2266 29.7188 17.5996 30.1465 17.3359 30.791H17.3066V29.8359H16.041V36ZM28.5742 36.123C30.0684 36.123 31.0176 35.2324 31.2168 34.2539L31.2285 34.1895H30.0273L30.0098 34.2363C29.8516 34.6992 29.3535 35.0859 28.6035 35.0859C27.5957 35.0859 26.957 34.4062 26.9336 33.2402H31.2988V32.8125C31.2988 30.9609 30.2383 29.7188 28.5098 29.7188C26.7812 29.7188 25.668 31.0078 25.668 32.9355V32.9414C25.668 34.8867 26.7637 36.123 28.5742 36.123ZM28.5156 30.7559C29.3418 30.7559 29.9395 31.2773 30.0449 32.3438H26.9512C27.0625 31.3125 27.6953 30.7559 28.5156 30.7559Z" fill="#ABABAB"/>
</svg>
