<svg width="37" height="38" viewBox="0 0 37 38" fill="none" xmlns="http://www.w3.org/2000/svg">
<path d="M16.875 18.75C21.2242 18.75 24.75 15.2242 24.75 10.875C24.75 6.52576 21.2242 3 16.875 3C12.5258 3 9 6.52576 9 10.875C9 15.2242 12.5258 18.75 16.875 18.75Z" stroke="#ABABAB" stroke-width="1.5" stroke-linecap="round" stroke-linejoin="round"/>
<path d="M22.4434 16.4438L26.9997 21.0002" stroke="#ABABAB" stroke-width="1.5" stroke-linecap="round" stroke-linejoin="round"/>
<path d="M3.96875 36.1406C5.97266 36.1406 7.19141 35.1621 7.19141 33.6211V33.6152C7.19141 32.3086 6.44141 31.5996 4.69531 31.2305L3.76953 31.0371C2.71484 30.8086 2.23438 30.4219 2.23438 29.7891V29.7832C2.23438 29.0449 2.90234 28.5469 3.95117 28.541C4.95312 28.541 5.63281 29.0156 5.75 29.8008L5.75586 29.8828H7.0332L7.02734 29.7832C6.93945 28.3652 5.73242 27.4043 3.96875 27.4043C2.18164 27.4043 0.910156 28.3945 0.904297 29.8359V29.8418C0.904297 31.0957 1.70703 31.8574 3.36523 32.209L4.28516 32.4023C5.4043 32.6484 5.86719 33.0176 5.86719 33.6973V33.7031C5.86719 34.4941 5.15234 35.0039 4.02148 35.0039C2.89062 35.0039 2.11133 34.5176 1.99414 33.7383L1.98242 33.6621H0.705078L0.710938 33.75C0.816406 35.2383 2.07031 36.1406 3.96875 36.1406ZM10.8535 36.123C12.3477 36.123 13.2969 35.2324 13.4961 34.2539L13.5078 34.1895H12.3066L12.2891 34.2363C12.1309 34.6992 11.6328 35.0859 10.8828 35.0859C9.875 35.0859 9.23633 34.4062 9.21289 33.2402H13.5781V32.8125C13.5781 30.9609 12.5176 29.7188 10.7891 29.7188C9.06055 29.7188 7.94727 31.0078 7.94727 32.9355V32.9414C7.94727 34.8867 9.04297 36.123 10.8535 36.123ZM10.7949 30.7559C11.6211 30.7559 12.2188 31.2773 12.3242 32.3438H9.23047C9.3418 31.3125 9.97461 30.7559 10.7949 30.7559ZM16.373 36.1113C17.1875 36.1113 17.9023 35.6895 18.2598 35.0273H18.2832V36H19.5547V31.752C19.5547 30.5156 18.5996 29.7188 17.0938 29.7188C15.5762 29.7188 14.6562 30.5332 14.5684 31.5938L14.5625 31.6582H15.7578L15.7695 31.6055C15.875 31.1133 16.3262 30.7676 17.0586 30.7676C17.8438 30.7676 18.2832 31.1777 18.2832 31.8574V32.3203L16.6074 32.4199C15.1484 32.5078 14.3164 33.1641 14.3164 34.2363V34.248C14.3164 35.3555 15.1426 36.1113 16.373 36.1113ZM15.5938 34.2188V34.207C15.5938 33.6855 16.0156 33.3516 16.7773 33.3047L18.2832 33.2109V33.6914C18.2832 34.4941 17.6094 35.0977 16.7188 35.0977C16.0391 35.0977 15.5938 34.7578 15.5938 34.2188ZM20.7852 36H22.0508V32.291C22.0508 31.418 22.5547 30.873 23.3691 30.873C23.6152 30.873 23.8379 30.9023 23.9375 30.9434V29.7656C23.8379 29.748 23.6797 29.7188 23.498 29.7188C22.7715 29.7188 22.2207 30.1523 22.0332 30.8555H22.0039V29.8359H20.7852V36ZM27.1016 36.123C28.584 36.123 29.6152 35.1738 29.75 33.9375L29.7559 33.8965H28.5371L28.5312 33.9434C28.3789 34.6113 27.8809 35.0625 27.1016 35.0625C26.123 35.0625 25.4727 34.2715 25.4727 32.9238V32.918C25.4727 31.5996 26.1113 30.7793 27.0957 30.7793C27.9219 30.7793 28.3906 31.2891 28.5254 31.8926L28.5371 31.9395H29.7441L29.7383 31.8984C29.6328 30.7383 28.6719 29.7188 27.084 29.7188C25.3262 29.7188 24.1777 30.9551 24.1777 32.9062V32.9121C24.1777 34.8867 25.3027 36.123 27.1016 36.123ZM30.6992 36H31.9648V32.4316C31.9648 31.4707 32.5449 30.8027 33.418 30.8027C34.3086 30.8027 34.8242 31.4121 34.8242 32.4316V36H36.0898V32.1914C36.0898 30.7031 35.2227 29.7188 33.9043 29.7188C32.9844 29.7188 32.3223 30.1348 31.9941 30.8496H31.9648V27.5449H30.6992V36Z" fill="#ABABAB"/>
</svg>
